# xmcd
#
# Track frame offsets:
#	150
#	11307
#	23307
#	36319
#	47719
#	60550
#	71864
#	83872
#	96463
#	104880
#	117337
#	129064
#	139987
#	150628
#	160846
#	174232
#	185794
#	197831
#	211420
#	224240
#
# Disc length: 3144 seconds
#
# Revision: 0
# Processed by: cddbd v1.5.2PL0 Copyright (c) Steve Scherf et al.
# Submitted via: EasyCDDAExtractor 9.1.0.1
#
DISCID=250c4614
DTITLE=Kitty Wells - Country Music Legends Disc 2
DYEAR=2007
DGENRE=Country
TTITLE0=I've Kissed You My Last Time
TTITLE1=You're Not Easy To Forget
TTITLE2=After Dark
TTITLE3=(Don't Hang Around) He's Married To Me
TTITLE4=I'm A Stranger In My Home
TTITLE5=Thou Shalt Not Steal
TTITLE6=Lonely Side Of Town
TTITLE7=You And Me
TTITLE8=No One But You
TTITLE9=I'd Rather Stay Home
TTITLE10=Goodbye Mr. Brown
TTITLE11=Searching (For Someone Like You)
TTITLE12=I Hope My Divorce Is Never Granted
TTITLE13=Make Up Your Mind
TTITLE14=I Don't Claim To Be An Angel
TTITLE15=As Long As I Live
TTITLE16=Mother Hold Me Tight
TTITLE17=Death At The Bar
TTITLE18=Love Or Hate
TTITLE19=There's Poison In Your Heart
EXTD=
EXTT0=
EXTT1=
EXTT2=
EXTT3=
EXTT4=
EXTT5=
EXTT6=
EXTT7=
EXTT8=
EXTT9=
EXTT10=
EXTT11=
EXTT12=
EXTT13=
EXTT14=
EXTT15=
EXTT16=
EXTT17=
EXTT18=
EXTT19=
PLAYORDER=
